<?xml version="1.0" standalone="no"?>
<!DOCTYPE svg PUBLIC "-//W3C//DTD SVG 20010904//EN"
 "http://www.w3.org/TR/2001/REC-SVG-20010904/DTD/svg10.dtd">
<svg version="1.0" xmlns="http://www.w3.org/2000/svg"
 width="860.000000pt" height="860.000000pt" viewBox="0 0 860.000000 860.000000"
 preserveAspectRatio="xMidYMid meet">
<metadata>
Created by potrace 1.11, written by Peter Selinger 2001-2013
</metadata>
<g transform="translate(0.000000,860.000000) scale(0.100000,-0.100000)"
fill="#000000" stroke="none">
<path d="M7598 7395 c-1 -2 -32 -6 -68 -10 -78 -7 -94 -10 -185 -25 -38 -7
-77 -13 -85 -15 -75 -11 -318 -71 -470 -115 -120 -35 -120 -35 -140 -43 -8 -3
-67 -22 -130 -43 -63 -20 -121 -42 -129 -48 -8 -6 -17 -10 -20 -9 -9 4 -74
-18 -88 -30 -7 -5 -13 -7 -13 -4 0 3 -17 -1 -37 -10 -77 -32 -88 -36 -98 -38
-5 -2 -28 -11 -50 -20 -22 -10 -44 -19 -50 -21 -5 -1 -43 -16 -83 -33 l-72
-30 -75 44 c-219 130 -536 259 -784 320 -53 12 -109 26 -126 30 -16 5 -37 9
-45 10 -17 2 -112 18 -120 20 -3 0 -34 4 -70 9 -36 4 -78 9 -95 11 -16 2 -93
7 -169 10 -77 3 -143 8 -148 11 -4 3 -8 2 -8 -3 0 -4 -42 -8 -93 -9 -86 0
-197 -8 -277 -19 -225 -31 -354 -61 -565 -128 -55 -17 -102 -34 -105 -37 -3
-3 -12 -6 -20 -8 -14 -3 -76 -27 -150 -59 -50 -22 -227 -110 -275 -137 -93
-51 -110 -61 -115 -66 -3 -3 -43 -30 -89 -60 -46 -30 -89 -59 -95 -65 -6 -5
-38 -30 -71 -54 -171 -126 -416 -369 -555 -551 -19 -25 -38 -46 -42 -48 -5 -2
-8 -8 -8 -13 0 -5 -20 -35 -45 -68 -25 -32 -45 -62 -45 -66 0 -3 -11 -21 -25
-39 -14 -18 -25 -38 -25 -44 0 -7 -4 -12 -9 -12 -5 0 -11 -8 -14 -17 -6 -18
-37 -73 -47 -83 -11 -11 -121 -241 -153 -320 -47 -116 -50 -124 -53 -135 -2
-5 -10 -30 -19 -54 -25 -69 -64 -207 -86 -306 -33 -144 -34 -152 -45 -230 -3
-27 -8 -59 -10 -70 -18 -94 -25 -522 -12 -665 4 -36 10 -94 13 -130 l6 -65
-143 -146 c-79 -80 -165 -171 -193 -201 -95 -105 -133 -148 -171 -195 -22 -25
-55 -65 -74 -88 -57 -69 -65 -79 -126 -161 -33 -44 -64 -84 -70 -91 -6 -6 -26
-35 -45 -65 -18 -29 -36 -55 -40 -58 -17 -13 -168 -276 -210 -365 -60 -128
-83 -196 -125 -360 -14 -52 -13 -234 1 -300 16 -73 63 -180 99 -223 44 -53
112 -115 146 -133 19 -11 42 -24 50 -29 47 -30 158 -67 255 -85 157 -29 450
-24 635 10 14 3 41 7 60 9 19 3 71 12 115 21 44 9 88 19 98 21 10 2 26 5 35 8
9 3 28 7 42 10 156 30 686 200 905 291 98 40 89 40 147 3 102 -66 113 -73 168
-102 94 -49 250 -126 255 -126 3 0 24 -9 48 -19 56 -25 175 -72 196 -76 9 -2
43 -12 76 -23 75 -25 162 -50 195 -55 14 -3 43 -10 65 -15 38 -10 91 -20 145
-27 14 -2 40 -6 57 -10 18 -3 54 -8 80 -11 27 -3 68 -7 93 -11 112 -14 556 -6
670 12 14 2 43 6 65 10 23 3 52 7 65 10 14 3 50 10 80 16 30 5 64 12 75 14 11
2 47 11 80 19 33 9 69 18 79 21 49 12 242 78 254 87 6 6 12 8 12 5 0 -14 287
118 415 191 70 40 263 162 290 184 6 5 35 27 65 51 30 23 57 45 58 49 2 5 8 8
13 8 5 0 17 8 27 17 11 10 57 53 104 95 72 65 137 130 228 227 111 118 317
409 400 566 23 44 47 84 51 90 5 5 9 17 9 27 0 10 5 18 10 18 6 0 10 4 10 10
0 5 14 40 31 77 66 144 121 297 165 458 6 22 15 61 20 85 3 14 9 39 14 55 5
17 12 46 15 65 3 19 10 60 15 90 30 171 43 334 43 515 0 113 -10 302 -18 344
-2 13 -7 49 -10 80 -4 31 -9 64 -11 73 -4 12 38 61 143 166 153 153 233 238
340 358 88 98 105 118 191 224 42 52 79 97 82 100 3 3 17 21 30 40 13 19 27
37 30 40 11 8 174 250 220 325 86 140 213 418 209 455 0 3 5 19 12 35 6 17 13
41 15 55 2 14 8 45 13 70 5 25 8 92 6 150 -4 113 -6 128 -19 148 -4 7 -6 16
-3 19 3 3 -14 44 -39 91 -41 80 -146 202 -173 202 -5 0 -11 3 -13 8 -7 15
-164 89 -208 97 -3 1 -15 4 -27 8 -12 5 -37 10 -55 12 -18 2 -44 7 -58 10 -26
7 -395 16 -402 10z m397 -334 c81 -19 133 -39 175 -67 43 -29 99 -105 102
-138 10 -141 -1 -217 -48 -346 -70 -191 -256 -496 -436 -718 -18 -22 -46 -57
-63 -78 -16 -21 -41 -50 -55 -66 -14 -15 -29 -34 -35 -41 -46 -57 -203 -227
-328 -355 l-90 -93 -37 108 c-45 131 -71 195 -116 291 -19 41 -34 75 -34 77 0
2 -13 27 -30 55 -16 27 -27 50 -23 50 3 0 0 8 -8 18 -8 9 -23 33 -33 52 -31
58 -168 265 -177 268 -5 2 -9 8 -9 14 0 12 -97 134 -194 243 -76 84 -214 220
-283 278 -56 46 -76 67 -71 72 14 14 567 211 648 231 8 2 33 8 55 14 22 6 47
13 55 15 8 2 15 4 15 5 0 1 7 3 15 5 8 2 53 13 100 25 104 26 249 56 310 65
25 3 52 8 60 10 8 3 47 7 85 11 39 3 71 7 73 9 9 8 333 -4 377 -14z m-6675
-3703 c28 -92 81 -236 116 -314 15 -32 28 -61 28 -64 3 -15 41 -88 55 -104 9
-10 15 -20 14 -22 -3 -5 9 -38 17 -44 3 -3 14 -21 23 -40 10 -19 23 -44 30
-54 6 -11 39 -63 72 -115 32 -53 62 -98 65 -101 4 -3 20 -25 37 -50 17 -25 39
-54 50 -65 10 -12 34 -41 53 -65 57 -74 99 -119 234 -253 71 -70 127 -129 125
-131 -2 -2 -51 -20 -109 -40 -58 -20 -116 -42 -130 -48 -14 -6 -38 -14 -55
-18 -16 -4 -87 -26 -157 -49 -70 -22 -138 -43 -150 -45 -13 -3 -38 -9 -55 -15
-18 -5 -33 -7 -33 -5 0 3 -6 2 -12 -3 -7 -4 -17 -8 -23 -9 -5 -1 -62 -14 -125
-28 -63 -14 -131 -27 -150 -31 -19 -3 -46 -7 -60 -10 -14 -2 -50 -7 -80 -10
-30 -4 -85 -10 -122 -14 -94 -10 -285 -5 -355 9 -79 17 -75 16 -98 25 -11 4
-34 14 -52 21 -17 7 -52 31 -76 53 -58 54 -79 117 -73 221 5 81 14 133 29 170
3 8 18 46 31 83 46 122 104 233 202 382 32 50 61 95 63 100 2 6 7 12 10 15 4
3 28 34 54 70 48 67 69 94 101 132 10 13 30 39 45 58 14 19 28 37 31 40 3 3
32 37 65 75 75 88 112 129 200 223 39 42 84 90 100 108 17 18 33 33 37 34 3 0
16 -33 28 -72z"/>
</g>
</svg>
